<?xml version="1.0" encoding="UTF-8"?>
<svg xmlns="http://www.w3.org/2000/svg" xmlns:xlink="http://www.w3.org/1999/xlink" width="40pt" height="40pt" viewBox="0 0 40 40" version="1.1">
<defs>
<filter id="alpha" filterUnits="objectBoundingBox" x="0%" y="0%" width="100%" height="100%">
  <feColorMatrix type="matrix" in="SourceGraphic" values="0 0 0 0 1 0 0 0 0 1 0 0 0 0 1 0 0 0 1 0"/>
</filter>
<mask id="mask0">
  <g filter="url(#alpha)">
<rect x="0" y="0" width="40" height="40" style="fill:rgb(0%,0%,0%);fill-opacity:0.968627;stroke:none;"/>
  </g>
</mask>
<clipPath id="clip1">
  <rect width="40" height="40"/>
</clipPath>
<g id="surface6" clip-path="url(#clip1)">
<path style=" stroke:none;fill-rule:nonzero;fill:rgb(68.627451%,72.54902%,82.352941%);fill-opacity:1;" d="M 4.136719 11.035156 L 2.070312 11.035156 C 1.6875 11.035156 1.378906 10.726562 1.378906 10.34375 C 1.378906 9.964844 1.6875 9.65625 2.070312 9.65625 L 4.136719 9.65625 C 4.519531 9.65625 4.828125 9.964844 4.828125 10.34375 C 4.828125 10.726562 4.519531 11.035156 4.136719 11.035156 Z M 4.136719 11.035156 "/>
</g>
</defs>
<g id="surface1">
<path style=" stroke:none;fill-rule:nonzero;fill:rgb(93.72549%,94.901961%,98.039216%);fill-opacity:1;" d="M 38.621094 35.863281 L 1.378906 35.863281 C 0.617188 35.863281 0 35.246094 0 34.484375 L 0 5.515625 C 0 4.753906 0.617188 4.136719 1.378906 4.136719 L 38.621094 4.136719 C 39.382812 4.136719 40 4.753906 40 5.515625 L 40 34.484375 C 40 35.246094 39.382812 35.863281 38.621094 35.863281 Z M 38.621094 35.863281 "/>
<path style=" stroke:none;fill-rule:nonzero;fill:rgb(76.470588%,90.196078%,47.058824%);fill-opacity:1;" d="M 0 8.277344 L 40 8.277344 L 40 5.515625 C 40 4.753906 39.382812 4.136719 38.621094 4.136719 L 1.378906 4.136719 C 0.617188 4.136719 0 4.753906 0 5.515625 Z M 0 8.277344 "/>
<path style=" stroke:none;fill-rule:nonzero;fill:rgb(92.156863%,96.078431%,66.666667%);fill-opacity:1;" d="M 7.585938 6.898438 L 2.070312 6.898438 C 1.6875 6.898438 1.378906 6.585938 1.378906 6.207031 C 1.378906 5.824219 1.6875 5.515625 2.070312 5.515625 L 7.585938 5.515625 C 7.96875 5.515625 8.277344 5.824219 8.277344 6.207031 C 8.277344 6.585938 7.96875 6.898438 7.585938 6.898438 Z M 7.585938 6.898438 "/>
<path style=" stroke:none;fill-rule:nonzero;fill:rgb(92.156863%,96.078431%,66.666667%);fill-opacity:1;" d="M 11.722656 6.898438 L 10.34375 6.898438 C 9.964844 6.898438 9.65625 6.585938 9.65625 6.207031 C 9.65625 5.824219 9.964844 5.515625 10.34375 5.515625 L 11.722656 5.515625 C 12.105469 5.515625 12.414062 5.824219 12.414062 6.207031 C 12.414062 6.585938 12.105469 6.898438 11.722656 6.898438 Z M 11.722656 6.898438 "/>
<path style=" stroke:none;fill-rule:nonzero;fill:rgb(92.156863%,96.078431%,66.666667%);fill-opacity:1;" d="M 37.929688 6.898438 L 36.550781 6.898438 C 36.171875 6.898438 35.863281 6.585938 35.863281 6.207031 C 35.863281 5.824219 36.171875 5.515625 36.550781 5.515625 L 37.929688 5.515625 C 38.3125 5.515625 38.621094 5.824219 38.621094 6.207031 C 38.621094 6.585938 38.3125 6.898438 37.929688 6.898438 Z M 37.929688 6.898438 "/>
<path style=" stroke:none;fill-rule:nonzero;fill:rgb(92.156863%,96.078431%,66.666667%);fill-opacity:1;" d="M 33.792969 6.898438 L 32.414062 6.898438 C 32.03125 6.898438 31.722656 6.585938 31.722656 6.207031 C 31.722656 5.824219 32.03125 5.515625 32.414062 5.515625 L 33.792969 5.515625 C 34.175781 5.515625 34.484375 5.824219 34.484375 6.207031 C 34.484375 6.585938 34.175781 6.898438 33.792969 6.898438 Z M 33.792969 6.898438 "/>
<path style=" stroke:none;fill-rule:nonzero;fill:rgb(84.313725%,87.058824%,92.941176%);fill-opacity:1;" d="M 0 8.277344 L 40 8.277344 L 40 12.414062 L 0 12.414062 Z M 0 8.277344 "/>
<use xlink:href="#surface6" mask="url(#mask0)"/>
<path style=" stroke:none;fill-rule:nonzero;fill:rgb(100%,84.313725%,50.980392%);fill-opacity:1;" d="M 8.964844 11.035156 L 6.898438 11.035156 C 6.515625 11.035156 6.207031 10.726562 6.207031 10.34375 C 6.207031 9.964844 6.515625 9.65625 6.898438 9.65625 L 8.964844 9.65625 C 9.347656 9.65625 9.65625 9.964844 9.65625 10.34375 C 9.65625 10.726562 9.347656 11.035156 8.964844 11.035156 Z M 8.964844 11.035156 "/>
<path style=" stroke:none;fill-rule:nonzero;fill:rgb(70.588235%,88.235294%,98.039216%);fill-opacity:1;" d="M 12.414062 11.035156 L 11.722656 11.035156 C 11.34375 11.035156 11.035156 10.726562 11.035156 10.34375 C 11.035156 9.964844 11.34375 9.65625 11.722656 9.65625 L 12.414062 9.65625 C 12.792969 9.65625 13.105469 9.964844 13.105469 10.34375 C 13.101562 10.726562 12.792969 11.035156 12.414062 11.035156 Z M 12.414062 11.035156 "/>
<path style=" stroke:none;fill-rule:nonzero;fill:rgb(70.588235%,88.235294%,98.039216%);fill-opacity:1;" d="M 15.863281 11.035156 L 15.171875 11.035156 C 14.792969 11.035156 14.484375 10.726562 14.484375 10.34375 C 14.484375 9.964844 14.792969 9.65625 15.171875 9.65625 L 15.863281 9.65625 C 16.242188 9.65625 16.550781 9.964844 16.550781 10.34375 C 16.550781 10.726562 16.242188 11.035156 15.863281 11.035156 Z M 15.863281 11.035156 "/>
<path style=" stroke:none;fill-rule:nonzero;fill:rgb(78.039216%,81.176471%,88.627451%);fill-opacity:1;" d="M 20.691406 11.035156 L 18.621094 11.035156 C 18.238281 11.035156 17.929688 10.726562 17.929688 10.34375 C 17.929688 9.964844 18.238281 9.65625 18.621094 9.65625 L 20.691406 9.65625 C 21.070312 9.65625 21.378906 9.964844 21.378906 10.34375 C 21.378906 10.726562 21.070312 11.035156 20.691406 11.035156 Z M 20.691406 11.035156 "/>
<path style=" stroke:none;fill-rule:nonzero;fill:rgb(93.72549%,94.901961%,98.039216%);fill-opacity:1;" d="M 24.828125 11.035156 L 23.449219 11.035156 C 23.066406 11.035156 22.757812 10.726562 22.757812 10.34375 C 22.757812 9.964844 23.066406 9.65625 23.449219 9.65625 L 24.828125 9.65625 C 25.207031 9.65625 25.515625 9.964844 25.515625 10.34375 C 25.515625 10.726562 25.207031 11.035156 24.828125 11.035156 Z M 24.828125 11.035156 "/>
<path style=" stroke:none;fill-rule:nonzero;fill:rgb(93.72549%,94.901961%,98.039216%);fill-opacity:1;" d="M 28.964844 11.035156 L 27.585938 11.035156 C 27.207031 11.035156 26.898438 10.726562 26.898438 10.34375 C 26.898438 9.964844 27.207031 9.65625 27.585938 9.65625 L 28.964844 9.65625 C 29.347656 9.65625 29.65625 9.964844 29.65625 10.34375 C 29.65625 10.726562 29.347656 11.035156 28.964844 11.035156 Z M 28.964844 11.035156 "/>
<path style=" stroke:none;fill-rule:nonzero;fill:rgb(78.039216%,81.176471%,88.627451%);fill-opacity:1;" d="M 33.792969 11.035156 L 31.722656 11.035156 C 31.34375 11.035156 31.035156 10.726562 31.035156 10.34375 C 31.035156 9.964844 31.34375 9.65625 31.722656 9.65625 L 33.792969 9.65625 C 34.175781 9.65625 34.484375 9.964844 34.484375 10.34375 C 34.484375 10.726562 34.175781 11.035156 33.792969 11.035156 Z M 33.792969 11.035156 "/>
<path style=" stroke:none;fill-rule:nonzero;fill:rgb(78.039216%,81.176471%,88.627451%);fill-opacity:1;" d="M 37.929688 11.035156 L 36.550781 11.035156 C 36.171875 11.035156 35.863281 10.726562 35.863281 10.34375 C 35.863281 9.964844 36.171875 9.65625 36.550781 9.65625 L 37.929688 9.65625 C 38.3125 9.65625 38.621094 9.964844 38.621094 10.34375 C 38.621094 10.726562 38.3125 11.035156 37.929688 11.035156 Z M 37.929688 11.035156 "/>
<path style=" stroke:none;fill-rule:nonzero;fill:rgb(78.039216%,81.176471%,88.627451%);fill-opacity:1;" d="M 0 12.414062 L 40 12.414062 L 40 13.792969 L 0 13.792969 Z M 0 12.414062 "/>
<path style=" stroke:none;fill-rule:nonzero;fill:rgb(56.078431%,58.823529%,67.45098%);fill-opacity:1;" d="M 21.378906 17.242188 L 18.621094 17.242188 C 18.238281 17.242188 17.929688 16.933594 17.929688 16.550781 L 17.929688 15.863281 C 17.929688 15.480469 18.238281 15.171875 18.621094 15.171875 L 21.378906 15.171875 C 21.761719 15.171875 22.070312 15.480469 22.070312 15.863281 L 22.070312 16.550781 C 22.070312 16.933594 21.761719 17.242188 21.378906 17.242188 Z M 21.378906 17.242188 "/>
<path style=" stroke:none;fill-rule:nonzero;fill:rgb(56.078431%,58.823529%,67.45098%);fill-opacity:1;" d="M 10.34375 17.242188 L 7.585938 17.242188 C 7.207031 17.242188 6.898438 16.933594 6.898438 16.550781 L 6.898438 15.863281 C 6.898438 15.480469 7.207031 15.171875 7.585938 15.171875 L 10.34375 15.171875 C 10.726562 15.171875 11.035156 15.480469 11.035156 15.863281 L 11.035156 16.550781 C 11.035156 16.933594 10.726562 17.242188 10.34375 17.242188 Z M 10.34375 17.242188 "/>
<path style=" stroke:none;fill-rule:nonzero;fill:rgb(84.313725%,87.058824%,92.941176%);fill-opacity:1;" d="M 4.828125 17.242188 L 2.070312 17.242188 C 1.6875 17.242188 1.378906 16.933594 1.378906 16.550781 L 1.378906 15.863281 C 1.378906 15.480469 1.6875 15.171875 2.070312 15.171875 L 4.828125 15.171875 C 5.207031 15.171875 5.515625 15.480469 5.515625 15.863281 L 5.515625 16.550781 C 5.515625 16.933594 5.207031 17.242188 4.828125 17.242188 Z M 4.828125 17.242188 "/>
<path style=" stroke:none;fill-rule:nonzero;fill:rgb(56.078431%,58.823529%,67.45098%);fill-opacity:1;" d="M 15.863281 17.242188 L 13.101562 17.242188 C 12.722656 17.242188 12.414062 16.933594 12.414062 16.550781 L 12.414062 15.863281 C 12.414062 15.480469 12.722656 15.171875 13.101562 15.171875 L 15.863281 15.171875 C 16.242188 15.171875 16.550781 15.480469 16.550781 15.863281 L 16.550781 16.550781 C 16.550781 16.933594 16.242188 17.242188 15.863281 17.242188 Z M 15.863281 17.242188 "/>
<path style=" stroke:none;fill-rule:nonzero;fill:rgb(56.078431%,58.823529%,67.45098%);fill-opacity:1;" d="M 32.414062 17.242188 L 29.65625 17.242188 C 29.273438 17.242188 28.964844 16.933594 28.964844 16.550781 L 28.964844 15.863281 C 28.964844 15.480469 29.273438 15.171875 29.65625 15.171875 L 32.414062 15.171875 C 32.792969 15.171875 33.101562 15.480469 33.101562 15.863281 L 33.101562 16.550781 C 33.101562 16.933594 32.792969 17.242188 32.414062 17.242188 Z M 32.414062 17.242188 "/>
<path style=" stroke:none;fill-rule:nonzero;fill:rgb(56.078431%,58.823529%,67.45098%);fill-opacity:1;" d="M 26.898438 17.242188 L 24.136719 17.242188 C 23.757812 17.242188 23.449219 16.933594 23.449219 16.550781 L 23.449219 15.863281 C 23.449219 15.480469 23.757812 15.171875 24.136719 15.171875 L 26.898438 15.171875 C 27.277344 15.171875 27.585938 15.480469 27.585938 15.863281 L 27.585938 16.550781 C 27.585938 16.933594 27.277344 17.242188 26.898438 17.242188 Z M 26.898438 17.242188 "/>
<path style=" stroke:none;fill-rule:nonzero;fill:rgb(56.078431%,58.823529%,67.45098%);fill-opacity:1;" d="M 37.929688 17.242188 L 35.171875 17.242188 C 34.792969 17.242188 34.484375 16.933594 34.484375 16.550781 L 34.484375 15.863281 C 34.484375 15.480469 34.792969 15.171875 35.171875 15.171875 L 37.929688 15.171875 C 38.3125 15.171875 38.621094 15.480469 38.621094 15.863281 L 38.621094 16.550781 C 38.621094 16.933594 38.3125 17.242188 37.929688 17.242188 Z M 37.929688 17.242188 "/>
<path style=" stroke:none;fill-rule:nonzero;fill:rgb(84.313725%,87.058824%,92.941176%);fill-opacity:1;" d="M 21.378906 20.691406 L 18.621094 20.691406 C 18.238281 20.691406 17.929688 20.382812 17.929688 20 L 17.929688 19.308594 C 17.929688 18.929688 18.238281 18.621094 18.621094 18.621094 L 21.378906 18.621094 C 21.761719 18.621094 22.070312 18.929688 22.070312 19.308594 L 22.070312 20 C 22.070312 20.382812 21.761719 20.691406 21.378906 20.691406 Z M 21.378906 20.691406 "/>
<path style=" stroke:none;fill-rule:nonzero;fill:rgb(84.313725%,87.058824%,92.941176%);fill-opacity:1;" d="M 10.34375 20.691406 L 7.585938 20.691406 C 7.207031 20.691406 6.898438 20.382812 6.898438 20 L 6.898438 19.308594 C 6.898438 18.929688 7.207031 18.621094 7.585938 18.621094 L 10.34375 18.621094 C 10.726562 18.621094 11.035156 18.929688 11.035156 19.308594 L 11.035156 20 C 11.035156 20.382812 10.726562 20.691406 10.34375 20.691406 Z M 10.34375 20.691406 "/>
<path style=" stroke:none;fill-rule:nonzero;fill:rgb(76.470588%,90.196078%,47.058824%);fill-opacity:1;" d="M 4.828125 20.691406 L 2.070312 20.691406 C 1.6875 20.691406 1.378906 20.382812 1.378906 20 L 1.378906 19.308594 C 1.378906 18.929688 1.6875 18.621094 2.070312 18.621094 L 4.828125 18.621094 C 5.207031 18.621094 5.515625 18.929688 5.515625 19.308594 L 5.515625 20 C 5.515625 20.382812 5.207031 20.691406 4.828125 20.691406 Z M 4.828125 20.691406 "/>
<path style=" stroke:none;fill-rule:nonzero;fill:rgb(84.313725%,87.058824%,92.941176%);fill-opacity:1;" d="M 15.863281 20.691406 L 13.101562 20.691406 C 12.722656 20.691406 12.414062 20.382812 12.414062 20 L 12.414062 19.308594 C 12.414062 18.929688 12.722656 18.621094 13.101562 18.621094 L 15.863281 18.621094 C 16.242188 18.621094 16.550781 18.929688 16.550781 19.308594 L 16.550781 20 C 16.550781 20.382812 16.242188 20.691406 15.863281 20.691406 Z M 15.863281 20.691406 "/>
<path style=" stroke:none;fill-rule:nonzero;fill:rgb(84.313725%,87.058824%,92.941176%);fill-opacity:1;" d="M 32.414062 20.691406 L 29.65625 20.691406 C 29.273438 20.691406 28.964844 20.382812 28.964844 20 L 28.964844 19.308594 C 28.964844 18.929688 29.273438 18.621094 29.65625 18.621094 L 32.414062 18.621094 C 32.792969 18.621094 33.101562 18.929688 33.101562 19.308594 L 33.101562 20 C 33.101562 20.382812 32.792969 20.691406 32.414062 20.691406 Z M 32.414062 20.691406 "/>
<path style=" stroke:none;fill-rule:nonzero;fill:rgb(84.313725%,87.058824%,92.941176%);fill-opacity:1;" d="M 26.898438 20.691406 L 24.136719 20.691406 C 23.757812 20.691406 23.449219 20.382812 23.449219 20 L 23.449219 19.308594 C 23.449219 18.929688 23.757812 18.621094 24.136719 18.621094 L 26.898438 18.621094 C 27.277344 18.621094 27.585938 18.929688 27.585938 19.308594 L 27.585938 20 C 27.585938 20.382812 27.277344 20.691406 26.898438 20.691406 Z M 26.898438 20.691406 "/>
<path style=" stroke:none;fill-rule:nonzero;fill:rgb(84.313725%,87.058824%,92.941176%);fill-opacity:1;" d="M 37.929688 20.691406 L 35.171875 20.691406 C 34.792969 20.691406 34.484375 20.382812 34.484375 20 L 34.484375 19.308594 C 34.484375 18.929688 34.792969 18.621094 35.171875 18.621094 L 37.929688 18.621094 C 38.3125 18.621094 38.621094 18.929688 38.621094 19.308594 L 38.621094 20 C 38.621094 20.382812 38.3125 20.691406 37.929688 20.691406 Z M 37.929688 20.691406 "/>
<path style=" stroke:none;fill-rule:nonzero;fill:rgb(84.313725%,87.058824%,92.941176%);fill-opacity:1;" d="M 21.378906 24.136719 L 18.621094 24.136719 C 18.238281 24.136719 17.929688 23.828125 17.929688 23.449219 L 17.929688 22.757812 C 17.929688 22.378906 18.238281 22.070312 18.621094 22.070312 L 21.378906 22.070312 C 21.761719 22.070312 22.070312 22.378906 22.070312 22.757812 L 22.070312 23.449219 C 22.070312 23.828125 21.761719 24.136719 21.378906 24.136719 Z M 21.378906 24.136719 "/>
<path style=" stroke:none;fill-rule:nonzero;fill:rgb(84.313725%,87.058824%,92.941176%);fill-opacity:1;" d="M 10.34375 24.136719 L 7.585938 24.136719 C 7.207031 24.136719 6.898438 23.828125 6.898438 23.449219 L 6.898438 22.757812 C 6.898438 22.378906 7.207031 22.070312 7.585938 22.070312 L 10.34375 22.070312 C 10.726562 22.070312 11.035156 22.378906 11.035156 22.757812 L 11.035156 23.449219 C 11.035156 23.828125 10.726562 24.136719 10.34375 24.136719 Z M 10.34375 24.136719 "/>
<path style=" stroke:none;fill-rule:nonzero;fill:rgb(76.470588%,90.196078%,47.058824%);fill-opacity:1;" d="M 4.828125 24.136719 L 2.070312 24.136719 C 1.6875 24.136719 1.378906 23.828125 1.378906 23.449219 L 1.378906 22.757812 C 1.378906 22.378906 1.6875 22.070312 2.070312 22.070312 L 4.828125 22.070312 C 5.207031 22.070312 5.515625 22.378906 5.515625 22.757812 L 5.515625 23.449219 C 5.515625 23.828125 5.207031 24.136719 4.828125 24.136719 Z M 4.828125 24.136719 "/>
<path style=" stroke:none;fill-rule:nonzero;fill:rgb(84.313725%,87.058824%,92.941176%);fill-opacity:1;" d="M 15.863281 24.136719 L 13.101562 24.136719 C 12.722656 24.136719 12.414062 23.828125 12.414062 23.449219 L 12.414062 22.757812 C 12.414062 22.378906 12.722656 22.070312 13.101562 22.070312 L 15.863281 22.070312 C 16.242188 22.070312 16.550781 22.378906 16.550781 22.757812 L 16.550781 23.449219 C 16.550781 23.828125 16.242188 24.136719 15.863281 24.136719 Z M 15.863281 24.136719 "/>
<path style=" stroke:none;fill-rule:nonzero;fill:rgb(84.313725%,87.058824%,92.941176%);fill-opacity:1;" d="M 32.414062 24.136719 L 29.65625 24.136719 C 29.273438 24.136719 28.964844 23.828125 28.964844 23.449219 L 28.964844 22.757812 C 28.964844 22.378906 29.273438 22.070312 29.65625 22.070312 L 32.414062 22.070312 C 32.792969 22.070312 33.101562 22.378906 33.101562 22.757812 L 33.101562 23.449219 C 33.101562 23.828125 32.792969 24.136719 32.414062 24.136719 Z M 32.414062 24.136719 "/>
<path style=" stroke:none;fill-rule:nonzero;fill:rgb(84.313725%,87.058824%,92.941176%);fill-opacity:1;" d="M 26.898438 24.136719 L 24.136719 24.136719 C 23.757812 24.136719 23.449219 23.828125 23.449219 23.449219 L 23.449219 22.757812 C 23.449219 22.378906 23.757812 22.070312 24.136719 22.070312 L 26.898438 22.070312 C 27.277344 22.070312 27.585938 22.378906 27.585938 22.757812 L 27.585938 23.449219 C 27.585938 23.828125 27.277344 24.136719 26.898438 24.136719 Z M 26.898438 24.136719 "/>
<path style=" stroke:none;fill-rule:nonzero;fill:rgb(84.313725%,87.058824%,92.941176%);fill-opacity:1;" d="M 37.929688 24.136719 L 35.171875 24.136719 C 34.792969 24.136719 34.484375 23.828125 34.484375 23.449219 L 34.484375 22.757812 C 34.484375 22.378906 34.792969 22.070312 35.171875 22.070312 L 37.929688 22.070312 C 38.3125 22.070312 38.621094 22.378906 38.621094 22.757812 L 38.621094 23.449219 C 38.621094 23.828125 38.3125 24.136719 37.929688 24.136719 Z M 37.929688 24.136719 "/>
<path style=" stroke:none;fill-rule:nonzero;fill:rgb(84.313725%,87.058824%,92.941176%);fill-opacity:1;" d="M 21.378906 27.585938 L 18.621094 27.585938 C 18.238281 27.585938 17.929688 27.277344 17.929688 26.898438 L 17.929688 26.207031 C 17.929688 25.824219 18.238281 25.515625 18.621094 25.515625 L 21.378906 25.515625 C 21.761719 25.515625 22.070312 25.824219 22.070312 26.207031 L 22.070312 26.898438 C 22.070312 27.277344 21.761719 27.585938 21.378906 27.585938 Z M 21.378906 27.585938 "/>
<path style=" stroke:none;fill-rule:nonzero;fill:rgb(84.313725%,87.058824%,92.941176%);fill-opacity:1;" d="M 10.34375 27.585938 L 7.585938 27.585938 C 7.207031 27.585938 6.898438 27.277344 6.898438 26.898438 L 6.898438 26.207031 C 6.898438 25.824219 7.207031 25.515625 7.585938 25.515625 L 10.34375 25.515625 C 10.726562 25.515625 11.035156 25.824219 11.035156 26.207031 L 11.035156 26.898438 C 11.035156 27.277344 10.726562 27.585938 10.34375 27.585938 Z M 10.34375 27.585938 "/>
<path style=" stroke:none;fill-rule:nonzero;fill:rgb(76.470588%,90.196078%,47.058824%);fill-opacity:1;" d="M 4.828125 27.585938 L 2.070312 27.585938 C 1.6875 27.585938 1.378906 27.277344 1.378906 26.898438 L 1.378906 26.207031 C 1.378906 25.824219 1.6875 25.515625 2.070312 25.515625 L 4.828125 25.515625 C 5.207031 25.515625 5.515625 25.824219 5.515625 26.207031 L 5.515625 26.898438 C 5.515625 27.277344 5.207031 27.585938 4.828125 27.585938 Z M 4.828125 27.585938 "/>
<path style=" stroke:none;fill-rule:nonzero;fill:rgb(84.313725%,87.058824%,92.941176%);fill-opacity:1;" d="M 15.863281 27.585938 L 13.101562 27.585938 C 12.722656 27.585938 12.414062 27.277344 12.414062 26.898438 L 12.414062 26.207031 C 12.414062 25.824219 12.722656 25.515625 13.101562 25.515625 L 15.863281 25.515625 C 16.242188 25.515625 16.550781 25.824219 16.550781 26.207031 L 16.550781 26.898438 C 16.550781 27.277344 16.242188 27.585938 15.863281 27.585938 Z M 15.863281 27.585938 "/>
<path style=" stroke:none;fill-rule:nonzero;fill:rgb(84.313725%,87.058824%,92.941176%);fill-opacity:1;" d="M 32.414062 27.585938 L 29.65625 27.585938 C 29.273438 27.585938 28.964844 27.277344 28.964844 26.898438 L 28.964844 26.207031 C 28.964844 25.824219 29.273438 25.515625 29.65625 25.515625 L 32.414062 25.515625 C 32.792969 25.515625 33.101562 25.824219 33.101562 26.207031 L 33.101562 26.898438 C 33.101562 27.277344 32.792969 27.585938 32.414062 27.585938 Z M 32.414062 27.585938 "/>
<path style=" stroke:none;fill-rule:nonzero;fill:rgb(84.313725%,87.058824%,92.941176%);fill-opacity:1;" d="M 26.898438 27.585938 L 24.136719 27.585938 C 23.757812 27.585938 23.449219 27.277344 23.449219 26.898438 L 23.449219 26.207031 C 23.449219 25.824219 23.757812 25.515625 24.136719 25.515625 L 26.898438 25.515625 C 27.277344 25.515625 27.585938 25.824219 27.585938 26.207031 L 27.585938 26.898438 C 27.585938 27.277344 27.277344 27.585938 26.898438 27.585938 Z M 26.898438 27.585938 "/>
<path style=" stroke:none;fill-rule:nonzero;fill:rgb(84.313725%,87.058824%,92.941176%);fill-opacity:1;" d="M 37.929688 27.585938 L 35.171875 27.585938 C 34.792969 27.585938 34.484375 27.277344 34.484375 26.898438 L 34.484375 26.207031 C 34.484375 25.824219 34.792969 25.515625 35.171875 25.515625 L 37.929688 25.515625 C 38.3125 25.515625 38.621094 25.824219 38.621094 26.207031 L 38.621094 26.898438 C 38.621094 27.277344 38.3125 27.585938 37.929688 27.585938 Z M 37.929688 27.585938 "/>
<path style=" stroke:none;fill-rule:nonzero;fill:rgb(84.313725%,87.058824%,92.941176%);fill-opacity:1;" d="M 21.378906 31.035156 L 18.621094 31.035156 C 18.238281 31.035156 17.929688 30.726562 17.929688 30.34375 L 17.929688 29.65625 C 17.929688 29.273438 18.238281 28.964844 18.621094 28.964844 L 21.378906 28.964844 C 21.761719 28.964844 22.070312 29.273438 22.070312 29.65625 L 22.070312 30.34375 C 22.070312 30.726562 21.761719 31.035156 21.378906 31.035156 Z M 21.378906 31.035156 "/>
<path style=" stroke:none;fill-rule:nonzero;fill:rgb(84.313725%,87.058824%,92.941176%);fill-opacity:1;" d="M 10.34375 31.035156 L 7.585938 31.035156 C 7.207031 31.035156 6.898438 30.726562 6.898438 30.34375 L 6.898438 29.65625 C 6.898438 29.273438 7.207031 28.964844 7.585938 28.964844 L 10.34375 28.964844 C 10.726562 28.964844 11.035156 29.273438 11.035156 29.65625 L 11.035156 30.34375 C 11.035156 30.726562 10.726562 31.035156 10.34375 31.035156 Z M 10.34375 31.035156 "/>
<path style=" stroke:none;fill-rule:nonzero;fill:rgb(76.470588%,90.196078%,47.058824%);fill-opacity:1;" d="M 4.828125 31.035156 L 2.070312 31.035156 C 1.6875 31.035156 1.378906 30.726562 1.378906 30.34375 L 1.378906 29.65625 C 1.378906 29.273438 1.6875 28.964844 2.070312 28.964844 L 4.828125 28.964844 C 5.207031 28.964844 5.515625 29.273438 5.515625 29.65625 L 5.515625 30.34375 C 5.515625 30.726562 5.207031 31.035156 4.828125 31.035156 Z M 4.828125 31.035156 "/>
<path style=" stroke:none;fill-rule:nonzero;fill:rgb(84.313725%,87.058824%,92.941176%);fill-opacity:1;" d="M 15.863281 31.035156 L 13.101562 31.035156 C 12.722656 31.035156 12.414062 30.726562 12.414062 30.34375 L 12.414062 29.65625 C 12.414062 29.273438 12.722656 28.964844 13.101562 28.964844 L 15.863281 28.964844 C 16.242188 28.964844 16.550781 29.273438 16.550781 29.65625 L 16.550781 30.34375 C 16.550781 30.726562 16.242188 31.035156 15.863281 31.035156 Z M 15.863281 31.035156 "/>
<path style=" stroke:none;fill-rule:nonzero;fill:rgb(84.313725%,87.058824%,92.941176%);fill-opacity:1;" d="M 32.414062 31.035156 L 29.65625 31.035156 C 29.273438 31.035156 28.964844 30.726562 28.964844 30.34375 L 28.964844 29.65625 C 28.964844 29.273438 29.273438 28.964844 29.65625 28.964844 L 32.414062 28.964844 C 32.792969 28.964844 33.101562 29.273438 33.101562 29.65625 L 33.101562 30.34375 C 33.101562 30.726562 32.792969 31.035156 32.414062 31.035156 Z M 32.414062 31.035156 "/>
<path style=" stroke:none;fill-rule:nonzero;fill:rgb(84.313725%,87.058824%,92.941176%);fill-opacity:1;" d="M 26.898438 31.035156 L 24.136719 31.035156 C 23.757812 31.035156 23.449219 30.726562 23.449219 30.34375 L 23.449219 29.65625 C 23.449219 29.273438 23.757812 28.964844 24.136719 28.964844 L 26.898438 28.964844 C 27.277344 28.964844 27.585938 29.273438 27.585938 29.65625 L 27.585938 30.34375 C 27.585938 30.726562 27.277344 31.035156 26.898438 31.035156 Z M 26.898438 31.035156 "/>
<path style=" stroke:none;fill-rule:nonzero;fill:rgb(84.313725%,87.058824%,92.941176%);fill-opacity:1;" d="M 37.929688 31.035156 L 35.171875 31.035156 C 34.792969 31.035156 34.484375 30.726562 34.484375 30.34375 L 34.484375 29.65625 C 34.484375 29.273438 34.792969 28.964844 35.171875 28.964844 L 37.929688 28.964844 C 38.3125 28.964844 38.621094 29.273438 38.621094 29.65625 L 38.621094 30.34375 C 38.621094 30.726562 38.3125 31.035156 37.929688 31.035156 Z M 37.929688 31.035156 "/>
<path style=" stroke:none;fill-rule:nonzero;fill:rgb(84.313725%,87.058824%,92.941176%);fill-opacity:1;" d="M 21.378906 34.484375 L 18.621094 34.484375 C 18.238281 34.484375 17.929688 34.175781 17.929688 33.792969 L 17.929688 33.101562 C 17.929688 32.722656 18.238281 32.414062 18.621094 32.414062 L 21.378906 32.414062 C 21.761719 32.414062 22.070312 32.722656 22.070312 33.101562 L 22.070312 33.792969 C 22.070312 34.175781 21.761719 34.484375 21.378906 34.484375 Z M 21.378906 34.484375 "/>
<path style=" stroke:none;fill-rule:nonzero;fill:rgb(84.313725%,87.058824%,92.941176%);fill-opacity:1;" d="M 10.34375 34.484375 L 7.585938 34.484375 C 7.207031 34.484375 6.898438 34.175781 6.898438 33.792969 L 6.898438 33.101562 C 6.898438 32.722656 7.207031 32.414062 7.585938 32.414062 L 10.34375 32.414062 C 10.726562 32.414062 11.035156 32.722656 11.035156 33.101562 L 11.035156 33.792969 C 11.035156 34.175781 10.726562 34.484375 10.34375 34.484375 Z M 10.34375 34.484375 "/>
<path style=" stroke:none;fill-rule:nonzero;fill:rgb(76.470588%,90.196078%,47.058824%);fill-opacity:1;" d="M 4.828125 34.484375 L 2.070312 34.484375 C 1.6875 34.484375 1.378906 34.175781 1.378906 33.792969 L 1.378906 33.101562 C 1.378906 32.722656 1.6875 32.414062 2.070312 32.414062 L 4.828125 32.414062 C 5.207031 32.414062 5.515625 32.722656 5.515625 33.101562 L 5.515625 33.792969 C 5.515625 34.175781 5.207031 34.484375 4.828125 34.484375 Z M 4.828125 34.484375 "/>
<path style=" stroke:none;fill-rule:nonzero;fill:rgb(84.313725%,87.058824%,92.941176%);fill-opacity:1;" d="M 15.863281 34.484375 L 13.101562 34.484375 C 12.722656 34.484375 12.414062 34.175781 12.414062 33.792969 L 12.414062 33.101562 C 12.414062 32.722656 12.722656 32.414062 13.101562 32.414062 L 15.863281 32.414062 C 16.242188 32.414062 16.550781 32.722656 16.550781 33.101562 L 16.550781 33.792969 C 16.550781 34.175781 16.242188 34.484375 15.863281 34.484375 Z M 15.863281 34.484375 "/>
<path style=" stroke:none;fill-rule:nonzero;fill:rgb(84.313725%,87.058824%,92.941176%);fill-opacity:1;" d="M 32.414062 34.484375 L 29.65625 34.484375 C 29.273438 34.484375 28.964844 34.175781 28.964844 33.792969 L 28.964844 33.101562 C 28.964844 32.722656 29.273438 32.414062 29.65625 32.414062 L 32.414062 32.414062 C 32.792969 32.414062 33.101562 32.722656 33.101562 33.101562 L 33.101562 33.792969 C 33.101562 34.175781 32.792969 34.484375 32.414062 34.484375 Z M 32.414062 34.484375 "/>
<path style=" stroke:none;fill-rule:nonzero;fill:rgb(84.313725%,87.058824%,92.941176%);fill-opacity:1;" d="M 26.898438 34.484375 L 24.136719 34.484375 C 23.757812 34.484375 23.449219 34.175781 23.449219 33.792969 L 23.449219 33.101562 C 23.449219 32.722656 23.757812 32.414062 24.136719 32.414062 L 26.898438 32.414062 C 27.277344 32.414062 27.585938 32.722656 27.585938 33.101562 L 27.585938 33.792969 C 27.585938 34.175781 27.277344 34.484375 26.898438 34.484375 Z M 26.898438 34.484375 "/>
<path style=" stroke:none;fill-rule:nonzero;fill:rgb(84.313725%,87.058824%,92.941176%);fill-opacity:1;" d="M 37.929688 34.484375 L 35.171875 34.484375 C 34.792969 34.484375 34.484375 34.175781 34.484375 33.792969 L 34.484375 33.101562 C 34.484375 32.722656 34.792969 32.414062 35.171875 32.414062 L 37.929688 32.414062 C 38.3125 32.414062 38.621094 32.722656 38.621094 33.101562 L 38.621094 33.792969 C 38.621094 34.175781 38.3125 34.484375 37.929688 34.484375 Z M 37.929688 34.484375 "/>
</g>
</svg>
